<svg xmlns="http://www.w3.org/2000/svg" xmlns:xlink="http://www.w3.org/1999/xlink" width="500" zoomAndPan="magnify" viewBox="0 0 375 374.999991" height="500" preserveAspectRatio="xMidYMid meet" version="1.0"><defs><g/><clipPath id="2a320b72e6"><path d="M 152 75.902344 L 219 75.902344 L 219 166 L 152 166 Z M 152 75.902344 " clip-rule="nonzero"/></clipPath><clipPath id="4a8a1e9b4b"><path d="M 151 184 L 219 184 L 219 304.734375 L 151 304.734375 Z M 151 184 " clip-rule="nonzero"/></clipPath></defs><g clip-path="url(#2a320b72e6)"><path fill="#ffffff" d="M 187.621094 75.902344 C 170.238281 75.902344 156.117188 113.4375 152.574219 165.050781 C 153.144531 164.851562 153.785156 164.734375 154.328125 164.652344 C 154.382812 164.636719 154.429688 164.613281 154.488281 164.597656 C 154.691406 164.539062 154.898438 164.484375 155.105469 164.4375 C 158.722656 115.714844 172.140625 78.332031 187.621094 78.332031 C 199.625 78.332031 210.398438 100.824219 216.316406 133.65625 C 217.128906 133.3125 217.941406 132.980469 218.769531 132.667969 C 212.621094 98.46875 201.101562 75.902344 187.621094 75.902344 Z M 187.621094 75.902344 " fill-opacity="1" fill-rule="nonzero"/></g><path fill="#ffffff" d="M 223.414062 184.195312 C 222.671875 184.664062 221.875 185.023438 221.035156 185.234375 C 221.066406 186.996094 221.097656 188.753906 221.097656 190.535156 C 221.097656 193.371094 221.054688 196.179688 220.992188 198.96875 C 221.730469 198.289062 222.46875 197.605469 223.203125 196.917969 C 223.28125 196.839844 223.367188 196.804688 223.453125 196.757812 C 223.488281 194.691406 223.53125 192.636719 223.53125 190.535156 C 223.53125 188.414062 223.511719 186.3125 223.476562 184.222656 C 223.457031 184.214844 223.433594 184.203125 223.414062 184.195312 Z M 223.414062 184.195312 " fill-opacity="1" fill-rule="nonzero"/><path fill="#ffffff" d="M 221.558594 163.320312 C 221.921875 163.410156 222.253906 163.546875 222.5625 163.710938 C 222.003906 155.949219 221.210938 148.503906 220.191406 141.476562 C 219.410156 141.917969 218.601562 142.316406 217.78125 142.691406 C 218.722656 149.171875 219.464844 155.996094 220.015625 163.042969 C 220.535156 163.105469 221.050781 163.191406 221.558594 163.320312 Z M 221.558594 163.320312 " fill-opacity="1" fill-rule="nonzero"/><g clip-path="url(#4a8a1e9b4b)"><path fill="#ffffff" d="M 218.589844 247.75 C 218.410156 247.789062 218.214844 247.792969 218 247.707031 C 217.902344 247.664062 217.808594 247.617188 217.710938 247.574219 L 217.707031 247.582031 C 217.675781 247.5625 217.640625 247.546875 217.605469 247.527344 C 217.191406 247.351562 216.792969 247.144531 216.390625 246.945312 C 210.492188 280.027344 199.683594 302.738281 187.621094 302.738281 C 169.472656 302.738281 154.140625 251.355469 154.140625 190.535156 C 154.140625 188.871094 154.175781 187.234375 154.203125 185.585938 C 153.292969 185.5 152.445312 185.210938 151.765625 184.691406 C 151.734375 186.628906 151.707031 188.570312 151.707031 190.535156 C 151.707031 254.816406 167.484375 305.167969 187.621094 305.167969 C 201.167969 305.167969 212.730469 282.355469 218.855469 247.855469 C 218.765625 247.820312 218.679688 247.789062 218.589844 247.75 Z M 218.589844 247.75 " fill-opacity="1" fill-rule="nonzero"/></g><path fill="#ffffff" d="M 220.359375 238.367188 C 221.734375 228.5625 222.699219 218 223.179688 206.867188 C 222.339844 207.53125 221.496094 208.183594 220.632812 208.8125 C 220.117188 218.859375 219.183594 228.496094 217.902344 237.519531 C 218.714844 237.816406 219.535156 238.105469 220.359375 238.367188 Z M 220.359375 238.367188 " fill-opacity="1" fill-rule="nonzero"/><path fill="#ffffff" d="M 187.621094 100.179688 C 174.707031 100.179688 164.097656 126.824219 160.683594 164.308594 C 160.996094 164.445312 161.285156 164.597656 161.546875 164.765625 C 162.074219 165.027344 162.582031 165.265625 163.0625 165.550781 C 166.289062 129.613281 176.226562 102.609375 187.621094 102.609375 C 195.804688 102.609375 203.242188 116.546875 207.980469 137.722656 C 208.742188 137.300781 209.519531 136.90625 210.289062 136.503906 C 205.214844 114.328125 197.027344 100.179688 187.621094 100.179688 Z M 187.621094 100.179688 " fill-opacity="1" fill-rule="nonzero"/><path fill="#ffffff" d="M 214.390625 163.863281 C 214.425781 163.847656 214.457031 163.828125 214.492188 163.808594 C 213.871094 157.167969 213.042969 150.84375 212 144.976562 C 211.195312 145.261719 210.398438 145.550781 209.601562 145.839844 C 210.664062 151.855469 211.511719 158.332031 212.132812 165.113281 C 212.867188 164.5 213.628906 164.058594 214.390625 163.863281 Z M 214.390625 163.863281 " fill-opacity="1" fill-rule="nonzero"/><path fill="#ffffff" d="M 213.195312 183.417969 C 213.257812 185.769531 213.292969 188.136719 213.292969 190.535156 C 213.292969 195.4375 213.160156 200.257812 212.925781 204.96875 C 213.539062 204.566406 214.15625 204.160156 214.769531 203.757812 C 214.992188 203.613281 215.214844 203.460938 215.4375 203.308594 C 215.613281 199.136719 215.722656 194.890625 215.722656 190.535156 C 215.722656 188.535156 215.703125 186.550781 215.664062 184.585938 C 214.832031 184.269531 213.992188 183.878906 213.195312 183.417969 Z M 213.195312 183.417969 " fill-opacity="1" fill-rule="nonzero"/><path fill="#ffffff" d="M 212.128906 235.300781 C 213.339844 228.328125 214.277344 220.773438 214.886719 212.75 C 214.027344 213.308594 213.152344 213.855469 212.28125 214.402344 C 211.679688 221.425781 210.820312 228.117188 209.746094 234.347656 C 210.542969 234.664062 211.335938 234.980469 212.128906 235.300781 Z M 212.128906 235.300781 " fill-opacity="1" fill-rule="nonzero"/><path fill="#ffffff" d="M 208.1875 242.394531 C 203.460938 264.105469 195.925781 278.460938 187.621094 278.460938 C 173.703125 278.460938 161.945312 238.195312 161.945312 190.535156 C 161.945312 188.441406 161.984375 186.371094 162.03125 184.3125 C 161.359375 184.9375 160.515625 185.296875 159.570312 185.449219 C 159.542969 187.132812 159.515625 188.824219 159.515625 190.535156 C 159.515625 241.203125 171.859375 280.890625 187.621094 280.890625 C 197.136719 280.890625 205.398438 266.398438 210.453125 243.773438 C 209.683594 243.339844 208.925781 242.886719 208.1875 242.394531 Z M 208.1875 242.394531 " fill-opacity="1" fill-rule="nonzero"/><path fill="#ffffff" d="M 179.554688 235.285156 C 174.847656 237.984375 170.191406 240.511719 165.625 242.820312 C 165.824219 243.65625 166.015625 244.519531 166.054688 245.304688 C 171.097656 242.777344 176.253906 239.976562 181.460938 236.976562 C 180.769531 236.496094 180.128906 235.925781 179.554688 235.285156 Z M 179.554688 235.285156 " fill-opacity="1" fill-rule="nonzero"/><path fill="#ffffff" d="M 236.5625 195.3125 C 236.347656 195.332031 236.132812 195.300781 235.929688 195.210938 C 227.132812 202.898438 217.351562 210.589844 206.824219 217.960938 C 203.539062 220.261719 200.253906 222.449219 196.964844 224.589844 C 197.398438 225.394531 197.738281 226.171875 197.957031 226.859375 C 201.378906 224.632812 204.800781 222.34375 208.21875 219.953125 C 219.015625 212.390625 228.933594 204.625 237.8125 196.90625 C 237.371094 196.390625 236.953125 195.867188 236.5625 195.3125 Z M 236.5625 195.3125 " fill-opacity="1" fill-rule="nonzero"/><path fill="#ffffff" d="M 281.523438 124.785156 C 278.515625 120.488281 272.902344 118.3125 264.839844 118.3125 C 242.554688 118.3125 204.160156 135.113281 167.023438 161.117188 C 165.199219 162.394531 163.402344 163.683594 161.621094 164.976562 C 161.757812 165.054688 161.878906 165.160156 162.011719 165.25 C 162.6875 165.546875 163.308594 165.917969 163.863281 166.355469 C 165.367188 165.265625 166.882812 164.183594 168.414062 163.109375 C 205.171875 137.371094 243.019531 120.742188 264.839844 120.742188 C 272.0625 120.742188 277.003906 122.570312 279.53125 126.179688 C 287.199219 137.125 271.140625 162.8125 242.253906 189.523438 C 242.925781 190.066406 243.566406 190.636719 244.152344 191.25 C 274.453125 163.382812 290.125 137.066406 281.523438 124.785156 Z M 281.523438 124.785156 " fill-opacity="1" fill-rule="nonzero"/><path fill="#ffffff" d="M 110.402344 260.328125 C 103.179688 260.328125 98.234375 258.5 95.710938 254.890625 C 90.796875 247.878906 95.574219 234.136719 108.8125 217.1875 C 118.367188 204.949219 131.5625 191.917969 147.039062 179.28125 C 146.511719 178.558594 146.117188 177.816406 145.886719 177.085938 C 130.105469 189.933594 116.636719 203.214844 106.894531 215.691406 C 92.75 233.804688 88.070312 248.21875 93.71875 256.285156 C 96.726562 260.582031 102.339844 262.757812 110.402344 262.757812 C 122.441406 262.757812 139.195312 257.84375 157.910156 249.230469 C 157.628906 248.460938 157.394531 247.683594 157.203125 246.898438 C 138.714844 255.453125 122.210938 260.328125 110.402344 260.328125 Z M 110.402344 260.328125 " fill-opacity="1" fill-rule="nonzero"/><path fill="#ffffff" d="M 261.636719 138.710938 C 259.277344 135.339844 254.898438 133.632812 248.617188 133.632812 C 231.164062 133.632812 200.890625 146.933594 171.5 167.515625 C 169.976562 168.582031 168.476562 169.660156 166.988281 170.742188 C 167.320312 171.5625 167.546875 172.410156 167.660156 173.265625 C 169.382812 172.003906 171.121094 170.746094 172.894531 169.507812 C 201.902344 149.191406 231.628906 136.0625 248.617188 136.0625 C 254.058594 136.0625 257.769531 137.421875 259.644531 140.101562 C 265.082031 147.867188 254.628906 165.53125 235.078125 184.644531 C 235.753906 184.933594 236.527344 185.394531 237.339844 185.957031 C 257.757812 165.917969 267.855469 147.589844 261.636719 138.710938 Z M 261.636719 138.710938 " fill-opacity="1" fill-rule="nonzero"/><path fill="#ffffff" d="M 126.625 245.007812 C 121.183594 245.007812 117.472656 243.644531 115.597656 240.964844 C 111.863281 235.640625 115.667969 225.03125 126.035156 211.867188 C 132.984375 203.039062 142.363281 193.667969 153.324219 184.488281 C 152.285156 184.398438 151.179688 184.207031 150.535156 183.660156 C 139.976562 192.621094 130.914062 201.742188 124.125 210.363281 C 112.890625 224.636719 109.152344 236 113.605469 242.359375 C 115.964844 245.730469 120.34375 247.4375 126.625 247.4375 C 134.410156 247.4375 144.746094 244.785156 156.414062 240.027344 C 156.394531 239.164062 156.394531 238.292969 156.410156 237.425781 C 144.695312 242.289062 134.34375 245.007812 126.625 245.007812 Z M 126.625 245.007812 " fill-opacity="1" fill-rule="nonzero"/><path fill="#ffffff" d="M 176.628906 227.59375 C 172.261719 229.996094 167.964844 232.207031 163.808594 234.15625 C 163.996094 234.953125 164.1875 235.753906 164.359375 236.558594 C 168.378906 234.6875 172.535156 232.570312 176.746094 230.277344 C 176.554688 229.40625 176.515625 228.496094 176.628906 227.59375 Z M 176.628906 227.59375 " fill-opacity="1" fill-rule="nonzero"/><path fill="#ffffff" d="M 229.941406 189.503906 C 221.867188 196.910156 212.550781 204.421875 202.34375 211.566406 C 198.601562 214.1875 194.847656 216.660156 191.113281 219.023438 C 191.96875 219.191406 192.816406 219.664062 193.617188 220.328125 C 196.988281 218.171875 200.367188 215.917969 203.738281 213.558594 C 214.199219 206.230469 223.640625 198.664062 231.765625 191.234375 C 231.164062 190.652344 230.554688 190.074219 229.941406 189.503906 Z M 229.941406 189.503906 " fill-opacity="1" fill-rule="nonzero"/><path fill="#ffffff" d="M 139.15625 195.070312 C 138.589844 195.6875 138.015625 196.300781 137.460938 196.933594 C 142.695312 201.484375 148.289062 206.050781 154.222656 210.582031 C 154.019531 209.40625 153.820312 208.222656 153.644531 207.035156 C 148.566406 203.074219 143.726562 199.070312 139.15625 195.070312 Z M 139.15625 195.070312 " fill-opacity="1" fill-rule="nonzero"/><path fill="#ffffff" d="M 110.402344 118.3125 C 102.339844 118.3125 96.722656 120.488281 93.71875 124.785156 C 85.058594 137.15625 101.011719 163.753906 131.730469 191.828125 C 132.238281 191.140625 132.777344 190.484375 133.367188 189.871094 C 104.242188 163.035156 88.007812 137.175781 95.707031 126.179688 C 98.234375 122.574219 103.175781 120.742188 110.402344 120.742188 C 122.394531 120.742188 139.234375 125.777344 158.074219 134.578125 C 158.183594 133.738281 158.269531 132.890625 158.347656 132.046875 C 139.460938 123.304688 122.535156 118.3125 110.402344 118.3125 Z M 110.402344 118.3125 " fill-opacity="1" fill-rule="nonzero"/><path fill="#ffffff" d="M 187.246094 148.828125 C 187.621094 148.640625 187.972656 148.660156 188.273438 148.785156 C 188.457031 148.667969 188.644531 148.5625 188.832031 148.453125 C 181.011719 143.6875 173.265625 139.375 165.765625 135.621094 C 165.714844 136.484375 165.632812 137.347656 165.542969 138.210938 C 172.195312 141.574219 179.046875 145.367188 185.972656 149.539062 C 186.394531 149.300781 186.8125 149.050781 187.246094 148.828125 Z M 187.246094 148.828125 " fill-opacity="1" fill-rule="nonzero"/><path fill="#ffffff" d="M 229.777344 177.410156 C 229.535156 178.203125 229.171875 178.996094 228.707031 179.746094 C 265.90625 210.390625 288.324219 242.335938 279.53125 254.894531 C 277.003906 258.5 272.058594 260.332031 264.835938 260.332031 C 248.523438 260.332031 223.238281 251.007812 196.15625 235.554688 C 195.664062 236.238281 195.109375 236.863281 194.488281 237.394531 C 222.128906 253.207031 248.054688 262.757812 264.835938 262.757812 C 272.902344 262.757812 278.515625 260.582031 281.523438 256.285156 C 291.390625 242.1875 269.277344 209.601562 229.777344 177.410156 Z M 229.777344 177.410156 " fill-opacity="1" fill-rule="nonzero"/><path fill="#ffffff" d="M 177.226562 225.328125 C 177.375 224.988281 177.554688 224.632812 177.75 224.277344 C 174.636719 222.234375 171.523438 220.136719 168.414062 217.960938 C 165.917969 216.214844 163.476562 214.445312 161.070312 212.667969 C 161.175781 213.753906 161.285156 214.839844 161.402344 215.925781 C 163.253906 217.273438 165.113281 218.621094 167.023438 219.953125 C 170.277344 222.234375 173.542969 224.421875 176.808594 226.554688 C 176.914062 226.136719 177.050781 225.726562 177.226562 225.328125 Z M 177.226562 225.328125 " fill-opacity="1" fill-rule="nonzero"/><path fill="#ffffff" d="M 212.96875 164.5 C 211.40625 163.367188 209.820312 162.242188 208.21875 161.121094 C 204.070312 158.214844 199.902344 155.4375 195.75 152.773438 C 195.023438 153.285156 194.289062 153.769531 193.546875 154.25 C 197.96875 157.066406 202.40625 160.015625 206.824219 163.109375 C 208.253906 164.109375 209.664062 165.121094 211.066406 166.132812 C 211.667969 165.476562 212.308594 164.917969 212.96875 164.5 Z M 212.96875 164.5 " fill-opacity="1" fill-rule="nonzero"/><path fill="#ffffff" d="M 144.578125 188.898438 C 144.550781 188.949219 144.535156 189 144.496094 189.050781 C 144.128906 189.523438 143.742188 189.972656 143.347656 190.414062 C 143.242188 190.535156 143.132812 190.648438 143.027344 190.769531 C 146.203125 193.691406 149.53125 196.613281 153.035156 199.515625 C 153.046875 198.871094 153.085938 198.230469 153.136719 197.59375 C 153.09375 197.179688 153.058594 196.761719 153.035156 196.34375 C 150.089844 193.871094 147.277344 191.386719 144.578125 188.898438 Z M 144.578125 188.898438 " fill-opacity="1" fill-rule="nonzero"/><path fill="#ffffff" d="M 126.625 133.632812 C 120.34375 133.632812 115.960938 135.34375 113.605469 138.710938 C 109.148438 145.070312 112.886719 156.433594 124.125 170.707031 C 128.011719 175.644531 132.660156 180.746094 137.890625 185.886719 C 137.96875 185.832031 138.046875 185.773438 138.128906 185.71875 C 138.628906 185.210938 139.117188 184.683594 139.609375 184.167969 C 134.449219 179.097656 129.863281 174.066406 126.035156 169.207031 C 115.667969 156.039062 111.863281 145.433594 115.59375 140.105469 C 117.46875 137.421875 121.183594 136.066406 126.625 136.066406 C 134.394531 136.066406 144.832031 138.816406 156.644531 143.742188 C 156.722656 142.914062 156.824219 142.085938 156.953125 141.265625 C 145.066406 136.371094 134.527344 133.632812 126.625 133.632812 Z M 126.625 133.632812 " fill-opacity="1" fill-rule="nonzero"/><path fill="#ffffff" d="M 208.160156 170.683594 C 206.707031 169.621094 205.238281 168.566406 203.738281 167.515625 C 198.601562 163.921875 193.445312 160.554688 188.332031 157.4375 C 187.703125 157.816406 187.074219 158.191406 186.441406 158.574219 C 186.257812 158.683594 186.082031 158.738281 185.914062 158.757812 C 185.898438 158.769531 185.878906 158.777344 185.863281 158.785156 C 191.324219 162.078125 196.84375 165.652344 202.34375 169.507812 C 204.0625 170.707031 205.746094 171.925781 207.410156 173.148438 C 207.507812 172.433594 207.773438 171.582031 208.160156 170.683594 Z M 208.160156 170.683594 " fill-opacity="1" fill-rule="nonzero"/><path fill="#ffffff" d="M 183.804688 219.011719 C 183.847656 218.980469 183.898438 218.941406 183.941406 218.917969 C 180.265625 216.582031 176.574219 214.144531 172.894531 211.566406 C 168.445312 208.449219 164.152344 205.257812 160.03125 202.023438 C 160.144531 203.132812 160.265625 204.246094 160.371094 205.359375 C 163.964844 208.132812 167.671875 210.875 171.5 213.558594 C 174.769531 215.847656 178.050781 218.03125 181.324219 220.132812 C 182.097656 219.582031 182.929688 219.183594 183.804688 219.011719 Z M 183.804688 219.011719 " fill-opacity="1" fill-rule="nonzero"/><path fill="#ffffff" d="M 224.457031 183.425781 C 223.785156 183.992188 223.046875 184.464844 222.257812 184.8125 C 249.800781 208.050781 266.171875 231.644531 259.644531 240.96875 C 257.769531 243.648438 254.058594 245.007812 248.617188 245.007812 C 236.574219 245.007812 218.136719 238.402344 198.089844 227.328125 C 198.132812 227.5 198.175781 227.667969 198.199219 227.820312 C 198.316406 228.578125 198.3125 229.367188 198.230469 230.160156 C 218.148438 240.996094 236.480469 247.4375 248.617188 247.4375 C 254.898438 247.4375 259.277344 245.730469 261.636719 242.363281 C 269.046875 231.773438 253.265625 207.757812 224.457031 183.425781 Z M 224.457031 183.425781 " fill-opacity="1" fill-rule="nonzero"/><path fill="#ffffff" d="M 180.660156 152.941406 C 175.136719 149.820312 169.707031 147.003906 164.476562 144.570312 C 164.296875 145.367188 164.117188 146.167969 163.898438 146.960938 C 168.621094 149.175781 173.507812 151.695312 178.484375 154.484375 C 179.207031 153.96875 179.933594 153.453125 180.660156 152.941406 Z M 180.660156 152.941406 " fill-opacity="1" fill-rule="nonzero"/><path fill="#ffffff" d="M 157.011719 186.902344 C 150.140625 186.902344 144.546875 181.308594 144.546875 174.433594 C 144.546875 167.558594 150.140625 161.96875 157.011719 161.96875 C 163.890625 161.96875 169.480469 167.558594 169.480469 174.433594 C 169.480469 181.308594 163.890625 186.902344 157.011719 186.902344 Z M 157.011719 164.398438 C 151.480469 164.398438 146.976562 168.898438 146.976562 174.433594 C 146.976562 179.96875 151.480469 184.472656 157.011719 184.472656 C 162.546875 184.472656 167.050781 179.96875 167.050781 174.433594 C 167.050781 168.898438 162.546875 164.398438 157.011719 164.398438 Z M 157.011719 164.398438 " fill-opacity="1" fill-rule="nonzero"/><path fill="#ffffff" d="M 187.453125 241.503906 C 180.578125 241.503906 174.984375 235.914062 174.984375 229.039062 C 174.984375 222.164062 180.578125 216.570312 187.453125 216.570312 C 194.328125 216.570312 199.921875 222.164062 199.921875 229.039062 C 199.921875 235.914062 194.328125 241.503906 187.453125 241.503906 Z M 187.453125 219 C 181.917969 219 177.417969 223.503906 177.417969 229.039062 C 177.417969 234.574219 181.917969 239.074219 187.453125 239.074219 C 192.988281 239.074219 197.492188 234.574219 197.492188 229.039062 C 197.492188 223.503906 192.988281 219 187.453125 219 Z M 187.453125 219 " fill-opacity="1" fill-rule="nonzero"/><path fill="#ffffff" d="M 218.484375 186.3125 C 211.609375 186.3125 206.019531 180.71875 206.019531 173.84375 C 206.019531 166.96875 211.609375 161.375 218.484375 161.375 C 225.359375 161.375 230.953125 166.96875 230.953125 173.84375 C 230.953125 180.71875 225.359375 186.3125 218.484375 186.3125 Z M 218.484375 163.804688 C 212.953125 163.804688 208.449219 168.308594 208.449219 173.84375 C 208.449219 179.378906 212.953125 183.878906 218.484375 183.878906 C 224.019531 183.878906 228.523438 179.378906 228.523438 173.84375 C 228.523438 168.308594 224.019531 163.804688 218.484375 163.804688 Z M 218.484375 163.804688 " fill-opacity="1" fill-rule="nonzero"/><path fill="#ffffff" d="M 187.21875 211.183594 C 176.425781 211.183594 167.644531 202.402344 167.644531 191.609375 C 167.644531 180.816406 176.425781 172.035156 187.21875 172.035156 C 198.011719 172.035156 206.792969 180.816406 206.792969 191.609375 C 206.792969 202.402344 198.011719 211.183594 187.21875 211.183594 Z M 187.21875 174.464844 C 177.765625 174.464844 170.074219 182.15625 170.074219 191.609375 C 170.074219 201.0625 177.765625 208.753906 187.21875 208.753906 C 196.671875 208.753906 204.359375 201.0625 204.359375 191.609375 C 204.359375 182.15625 196.671875 174.464844 187.21875 174.464844 Z M 187.21875 174.464844 " fill-opacity="1" fill-rule="nonzero"/><path fill="#ffffff" d="M 150.078125 168.957031 C 151.507812 167.839844 153.226562 167.289062 154.921875 166.726562 C 155.25 166.617188 155.054688 166.160156 154.753906 166.1875 C 151.757812 166.445312 147.996094 168.496094 146.9375 171.460938 C 146.871094 171.65625 147.117188 171.757812 147.261719 171.667969 C 146.53125 172.519531 145.949219 173.523438 145.839844 174.519531 C 145.8125 174.761719 146.15625 174.9375 146.332031 174.75 C 147.113281 173.90625 147.597656 172.828125 148.359375 171.953125 C 149.53125 170.613281 151.164062 169.648438 152.859375 169.132812 C 153.128906 169.050781 153.078125 168.589844 152.78125 168.628906 C 151.285156 168.835938 150.023438 169.371094 148.792969 170.25 C 148.625 170.371094 148.453125 170.507812 148.285156 170.652344 C 148.851562 170.058594 149.421875 169.46875 150.078125 168.957031 Z M 150.078125 168.957031 " fill-opacity="1" fill-rule="nonzero"/><path fill="#ffffff" d="M 152.292969 170.609375 C 150.863281 171.128906 149.671875 171.960938 148.605469 173.046875 C 147.601562 174.0625 146.265625 175.839844 146.433594 177.355469 C 146.460938 177.589844 146.761719 177.792969 146.953125 177.570312 C 147.859375 176.519531 148.285156 175.09375 149.179688 173.992188 C 150.113281 172.84375 151.300781 171.945312 152.546875 171.164062 C 152.839844 170.984375 152.628906 170.484375 152.292969 170.609375 Z M 152.292969 170.609375 " fill-opacity="1" fill-rule="nonzero"/><path fill="#ffffff" d="M 157.167969 180.226562 C 156.902344 180.007812 156.585938 179.863281 156.265625 179.730469 C 156.289062 179.628906 156.308594 179.523438 156.332031 179.425781 C 156.429688 179.070312 155.859375 178.90625 155.71875 179.238281 C 155.683594 179.324219 155.65625 179.40625 155.628906 179.492188 C 155.335938 179.394531 155.050781 179.292969 154.785156 179.167969 C 154.410156 178.992188 154.066406 178.757812 153.746094 178.503906 C 153.789062 178.367188 153.832031 178.226562 153.886719 178.097656 C 154.042969 177.707031 153.496094 177.457031 153.300781 177.824219 C 153.265625 177.894531 153.242188 177.964844 153.207031 178.035156 C 152.839844 177.664062 152.527344 177.246094 152.269531 176.796875 C 152.492188 176.40625 152.730469 176.027344 152.988281 175.675781 C 153.152344 175.453125 152.820312 175.164062 152.628906 175.359375 C 151.820312 176.183594 151.195312 177.039062 150.734375 178.035156 C 150.53125 177.570312 150.355469 177.085938 150.171875 176.589844 C 150.699219 175.539062 151.402344 174.578125 152.140625 173.667969 C 152.285156 173.488281 152.070312 173.203125 151.863281 173.347656 C 150.660156 174.199219 149.765625 175.277344 149.082031 176.589844 C 148.503906 177.707031 147.835938 179.425781 148.347656 180.660156 C 148.402344 180.804688 148.628906 180.871094 148.726562 180.722656 C 149.265625 179.878906 149.382812 178.796875 149.675781 177.820312 C 149.800781 178.332031 149.996094 178.835938 150.257812 179.308594 C 149.929688 180.476562 149.800781 182.089844 150.632812 182.972656 C 150.726562 183.074219 150.929688 183.011719 150.976562 182.890625 C 151.273438 182.117188 151.070312 181.320312 151.101562 180.5 L 151.101562 180.492188 C 151.46875 180.910156 151.886719 181.277344 152.34375 181.585938 C 152.378906 182.496094 152.636719 183.628906 153.507812 184.023438 C 153.652344 184.089844 153.808594 183.972656 153.824219 183.832031 C 153.886719 183.28125 153.707031 182.746094 153.546875 182.210938 C 154.144531 182.429688 154.769531 182.539062 155.40625 182.511719 C 155.589844 183.097656 155.992188 183.632812 156.644531 183.625 C 156.765625 183.625 156.855469 183.492188 156.839844 183.378906 C 156.789062 182.96875 156.582031 182.625 156.40625 182.261719 C 156.441406 182.164062 156.414062 182.046875 156.3125 182.003906 L 156.300781 182 C 156.277344 181.945312 156.253906 181.894531 156.234375 181.835938 C 156.121094 181.472656 156.097656 181.066406 156.121094 180.660156 C 156.453125 180.699219 156.777344 180.683594 157.082031 180.578125 C 157.222656 180.53125 157.292969 180.332031 157.167969 180.226562 Z M 152.339844 180.246094 C 151.910156 179.902344 151.582031 179.515625 151.308594 179.101562 C 151.464844 178.492188 151.695312 177.890625 151.980469 177.324219 C 152.207031 177.863281 152.5 178.347656 152.875 178.785156 C 152.679688 179.28125 152.515625 179.78125 152.429688 180.304688 C 152.402344 180.28125 152.367188 180.269531 152.339844 180.246094 Z M 155.25 181.609375 C 154.597656 181.382812 153.957031 181.175781 153.34375 180.871094 C 153.332031 180.378906 153.390625 179.882812 153.492188 179.394531 C 153.546875 179.445312 153.597656 179.496094 153.65625 179.542969 C 154.105469 179.894531 154.707031 180.257812 155.335938 180.476562 C 155.261719 180.847656 155.226562 181.222656 155.25 181.609375 Z M 155.25 181.609375 " fill-opacity="1" fill-rule="nonzero"/><path fill="#ffffff" d="M 159.75 183.265625 C 159.28125 182.921875 158.675781 182.726562 158.371094 182.195312 C 158.132812 181.785156 158.101562 181.253906 158.128906 180.789062 C 158.148438 180.457031 157.613281 180.363281 157.542969 180.695312 C 157.398438 181.375 157.324219 182.054688 157.628906 182.703125 C 157.980469 183.464844 158.925781 183.851562 159.710938 183.570312 C 159.832031 183.523438 159.855469 183.34375 159.75 183.265625 Z M 159.75 183.265625 " fill-opacity="1" fill-rule="nonzero"/><path fill="#ffffff" d="M 161.871094 182.980469 C 161.53125 182.597656 161.125 182.484375 160.980469 181.945312 C 160.886719 181.601562 160.367188 181.554688 160.320312 181.953125 C 160.234375 182.707031 160.828125 183.621094 161.664062 183.511719 C 161.941406 183.476562 162.058594 183.191406 161.871094 182.980469 Z M 161.871094 182.980469 " fill-opacity="1" fill-rule="nonzero"/><path fill="#ffffff" d="M 157 178.058594 C 156.796875 177.699219 156.390625 177.535156 156.046875 177.328125 C 155.65625 177.097656 155.335938 176.792969 155.109375 176.394531 C 154.894531 176.015625 154.292969 176.3125 154.5 176.703125 C 154.882812 177.425781 155.921875 178.480469 156.824219 178.367188 C 156.972656 178.347656 157.078125 178.203125 157 178.058594 Z M 157 178.058594 " fill-opacity="1" fill-rule="nonzero"/><path fill="#ffffff" d="M 184.878906 176.328125 C 180.945312 176.039062 176.460938 176.894531 173.578125 179.800781 C 173.363281 180.019531 173.636719 180.324219 173.890625 180.199219 C 177.570312 178.40625 180.671875 176.867188 184.878906 176.777344 C 185.140625 176.773438 185.132812 176.34375 184.878906 176.328125 Z M 184.878906 176.328125 " fill-opacity="1" fill-rule="nonzero"/><path fill="#ffffff" d="M 181.382812 178.894531 C 177.441406 179.109375 171.824219 181.277344 170.757812 185.566406 C 170.710938 185.738281 170.914062 185.90625 171.0625 185.769531 C 172.363281 184.554688 173.394531 183.140625 174.839844 182.0625 C 176.730469 180.652344 179.167969 179.835938 181.460938 179.449219 C 181.824219 179.390625 181.734375 178.875 181.382812 178.894531 Z M 181.382812 178.894531 " fill-opacity="1" fill-rule="nonzero"/><path fill="#ffffff" d="M 179.085938 182.5 C 175.222656 183.964844 170.476562 187.40625 169.84375 191.847656 C 169.804688 192.132812 170.199219 192.269531 170.359375 192.042969 C 171.578125 190.324219 172.386719 188.449219 173.828125 186.863281 C 175.324219 185.210938 177.277344 183.96875 179.320312 183.105469 C 179.703125 182.941406 179.476562 182.351562 179.085938 182.5 Z M 179.085938 182.5 " fill-opacity="1" fill-rule="nonzero"/><path fill="#ffffff" d="M 177.667969 187.136719 C 174.183594 189.089844 169.929688 193.519531 170.53125 197.929688 C 170.558594 198.109375 170.8125 198.230469 170.914062 198.027344 C 171.90625 195.957031 172.304688 193.863281 173.585938 191.902344 C 174.703125 190.199219 176.296875 188.804688 177.988281 187.699219 C 178.296875 187.5 177.988281 186.957031 177.667969 187.136719 Z M 177.667969 187.136719 " fill-opacity="1" fill-rule="nonzero"/><path fill="#ffffff" d="M 189.101562 208.683594 C 188.648438 207.894531 187.972656 207.28125 187.554688 206.457031 C 187.328125 206.011719 187.1875 205.523438 187.089844 205.027344 C 187.109375 204.953125 187.09375 204.878906 187.042969 204.824219 C 186.949219 204.222656 186.933594 203.609375 186.980469 203.019531 C 187.015625 202.613281 186.425781 202.496094 186.347656 202.910156 C 186.25 203.402344 186.199219 203.988281 186.203125 204.597656 C 185.199219 204.386719 184.214844 204.179688 183.257812 203.921875 C 183.292969 203.230469 183.421875 202.546875 183.589844 201.878906 C 184.425781 202.195312 185.300781 202.355469 186.082031 202.179688 C 186.246094 202.144531 186.382812 201.902344 186.203125 201.785156 C 184.730469 200.839844 182.96875 200.566406 181.511719 199.519531 C 181.371094 199.417969 181.246094 199.289062 181.113281 199.179688 C 181.144531 198.9375 180.925781 198.78125 180.71875 198.84375 C 180.003906 198.171875 179.402344 197.378906 178.941406 196.511719 C 179.046875 196.28125 179.144531 196.046875 179.253906 195.820312 C 179.382812 195.539062 178.960938 195.273438 178.785156 195.535156 C 178.730469 195.617188 178.675781 195.710938 178.621094 195.796875 C 178.566406 195.667969 178.496094 195.542969 178.449219 195.410156 C 178.324219 195.078125 177.851562 195.269531 177.941406 195.601562 C 178.019531 195.890625 178.128906 196.152344 178.230469 196.425781 C 177.628906 197.433594 177.0625 198.566406 176.621094 199.753906 C 175.910156 198.835938 175.324219 197.820312 174.863281 196.761719 C 175.5625 195.09375 176.523438 193.515625 177.613281 192.089844 C 177.847656 191.78125 177.4375 191.363281 177.164062 191.664062 C 176.171875 192.769531 175.167969 194.097656 174.355469 195.542969 C 174.191406 195.34375 173.828125 195.507812 173.910156 195.800781 C 173.941406 195.921875 173.984375 196.042969 174.019531 196.164062 C 172.980469 198.207031 172.359375 200.445312 172.726562 202.597656 C 172.761719 202.820312 173.097656 202.871094 173.167969 202.648438 C 173.714844 200.980469 173.957031 199.253906 174.53125 197.597656 C 174.996094 198.675781 175.59375 199.703125 176.316406 200.636719 C 175.640625 202.804688 175.421875 205.089844 176.175781 207.082031 C 176.253906 207.296875 176.558594 207.246094 176.601562 207.03125 C 176.953125 205.265625 176.878906 203.449219 177.21875 201.667969 C 177.726562 202.207031 178.28125 202.695312 178.875 203.136719 C 178.4375 205.101562 178.488281 207.152344 179.503906 208.835938 C 179.714844 209.175781 180.195312 208.914062 180.179688 208.574219 C 180.117188 206.96875 179.867188 205.4375 179.941406 203.839844 C 180.667969 204.269531 181.4375 204.617188 182.238281 204.871094 C 182.136719 206.753906 182.582031 208.632812 184.039062 209.871094 C 184.308594 210.097656 184.617188 209.792969 184.546875 209.503906 C 184.207031 208.144531 183.539062 206.90625 183.316406 205.507812 C 183.296875 205.386719 183.300781 205.265625 183.289062 205.144531 C 184.238281 205.339844 185.230469 205.394531 186.242188 205.292969 C 186.398438 207 187.09375 208.714844 188.816406 209.0625 C 189.039062 209.109375 189.21875 208.882812 189.101562 208.683594 Z M 179.144531 202.132812 C 178.523438 201.71875 177.960938 201.238281 177.441406 200.703125 C 177.734375 199.546875 178.140625 198.410156 178.597656 197.308594 C 179.011719 198.152344 179.546875 198.917969 180.214844 199.605469 C 179.800781 200.386719 179.421875 201.230469 179.144531 202.132812 Z M 180.058594 202.679688 C 180.203125 201.808594 180.453125 200.964844 180.761719 200.140625 C 180.828125 200.199219 180.886719 200.265625 180.957031 200.324219 C 181.492188 200.777344 182.191406 201.238281 182.941406 201.601562 C 182.707031 202.25 182.503906 202.933594 182.375 203.65625 C 181.589844 203.402344 180.816406 203.089844 180.058594 202.679688 Z M 180.058594 202.679688 " fill-opacity="1" fill-rule="nonzero"/><path fill="#ffffff" d="M 193.289062 207.507812 C 192.792969 206.773438 191.902344 206.449219 191.378906 205.722656 C 190.785156 204.902344 190.632812 203.71875 190.609375 202.742188 C 190.601562 202.382812 190.035156 202.347656 189.980469 202.703125 C 189.777344 204.007812 189.785156 205.203125 190.4375 206.382812 C 190.953125 207.316406 192.109375 208.226562 193.210938 207.777344 C 193.304688 207.742188 193.347656 207.589844 193.289062 207.507812 Z M 193.289062 207.507812 " fill-opacity="1" fill-rule="nonzero"/><path fill="#ffffff" d="M 197.386719 205.171875 C 196.613281 205.074219 195.796875 205.335938 195.148438 204.792969 C 194.53125 204.273438 194.265625 203.375 194.070312 202.628906 C 193.960938 202.210938 193.300781 202.390625 193.347656 202.800781 C 193.472656 203.933594 193.726562 205.089844 194.628906 205.859375 C 195.496094 206.601562 196.929688 206.453125 197.546875 205.480469 C 197.625 205.359375 197.519531 205.1875 197.386719 205.171875 Z M 197.386719 205.171875 " fill-opacity="1" fill-rule="nonzero"/><path fill="#ffffff" d="M 198.449219 203.164062 C 198 202.96875 197.980469 203.273438 197.65625 202.601562 C 197.484375 202.242188 196.929688 202.460938 197.011719 202.839844 C 197.109375 203.269531 197.230469 203.8125 197.714844 203.953125 C 198.109375 204.0625 198.535156 203.800781 198.578125 203.402344 C 198.589844 203.304688 198.542969 203.207031 198.449219 203.164062 Z M 198.449219 203.164062 " fill-opacity="1" fill-rule="nonzero"/><path fill="#ffffff" d="M 199.636719 202.230469 C 199.578125 202.175781 199.539062 202.109375 199.515625 202.035156 C 199.390625 201.574219 198.695312 201.828125 198.816406 202.285156 C 198.875 202.511719 199.019531 202.671875 199.207031 202.808594 C 199.371094 202.933594 199.574219 202.816406 199.648438 202.65625 C 199.652344 202.636719 199.660156 202.621094 199.671875 202.601562 C 199.722656 202.488281 199.722656 202.332031 199.636719 202.230469 Z M 199.636719 202.230469 " fill-opacity="1" fill-rule="nonzero"/><path fill="#ffffff" d="M 185.90625 198.890625 C 185.457031 198.332031 184.695312 197.996094 184.113281 197.585938 C 183.28125 197.007812 182.5625 196.300781 181.929688 195.515625 C 181.644531 195.164062 181.050781 195.503906 181.316406 195.898438 C 181.890625 196.75 182.558594 197.511719 183.324219 198.195312 C 183.949219 198.753906 184.78125 199.433594 185.648438 199.488281 C 185.980469 199.507812 186.089844 199.113281 185.90625 198.890625 Z M 185.90625 198.890625 " fill-opacity="1" fill-rule="nonzero"/><path fill="#ffffff" d="M 186.890625 198.03125 C 186.410156 197.832031 185.984375 197.558594 185.636719 197.167969 C 185.40625 196.910156 185.046875 197.296875 185.316406 197.515625 C 185.78125 197.886719 186.273438 198.0625 186.839844 198.222656 C 186.96875 198.257812 187.007812 198.078125 186.890625 198.03125 Z M 186.890625 198.03125 " fill-opacity="1" fill-rule="nonzero"/><path fill="#ffffff" d="M 217.511719 164.199219 C 214.867188 163.914062 210.953125 164.800781 209.585938 167.378906 C 209.464844 167.605469 209.765625 167.839844 209.972656 167.738281 C 211.226562 167.140625 212.203125 166.117188 213.492188 165.535156 C 214.765625 164.964844 216.136719 164.734375 217.523438 164.710938 C 217.863281 164.707031 217.828125 164.234375 217.511719 164.199219 Z M 217.511719 164.199219 " fill-opacity="1" fill-rule="nonzero"/><path fill="#ffffff" d="M 215.683594 166.003906 C 214.125 166.167969 212.746094 166.535156 211.328125 167.214844 C 209.894531 167.902344 207.976562 169.0625 207.421875 170.621094 C 207.355469 170.800781 207.542969 171.015625 207.730469 170.917969 C 209.023438 170.246094 210.007812 169.03125 211.269531 168.253906 C 212.636719 167.410156 214.21875 166.851562 215.789062 166.519531 C 216.085938 166.460938 215.976562 165.972656 215.683594 166.003906 Z M 215.683594 166.003906 " fill-opacity="1" fill-rule="nonzero"/><path fill="#ffffff" d="M 214.222656 168.554688 C 212.679688 168.925781 211.222656 169.578125 210.015625 170.628906 C 208.953125 171.554688 207.40625 173.21875 207.539062 174.730469 C 207.558594 174.980469 207.839844 175.152344 208.042969 174.957031 C 208.507812 174.515625 208.722656 173.929688 209.027344 173.375 C 209.464844 172.582031 210.0625 171.878906 210.710938 171.25 C 211.726562 170.265625 213.019531 169.632812 214.355469 169.226562 C 214.769531 169.101562 214.660156 168.449219 214.222656 168.554688 Z M 214.222656 168.554688 " fill-opacity="1" fill-rule="nonzero"/><path fill="#ffffff" d="M 213.558594 171.210938 C 211.859375 171.96875 210.558594 173.183594 209.59375 174.773438 C 209.011719 175.730469 208.222656 177.375 208.835938 178.460938 C 208.921875 178.617188 209.117188 178.648438 209.234375 178.507812 C 210 177.59375 210.105469 176.085938 210.691406 175.050781 C 211.453125 173.707031 212.640625 172.652344 213.882812 171.773438 C 214.1875 171.558594 213.898438 171.058594 213.558594 171.210938 Z M 213.558594 171.210938 " fill-opacity="1" fill-rule="nonzero"/><path fill="#ffffff" d="M 219.453125 179.339844 C 219.0625 179.160156 218.640625 179.054688 218.21875 178.960938 C 218.238281 178.714844 217.859375 178.5625 217.703125 178.757812 C 217.6875 178.78125 217.679688 178.8125 217.664062 178.835938 C 217.203125 178.742188 216.75 178.640625 216.320312 178.460938 C 215.996094 178.324219 215.6875 178.144531 215.398438 177.945312 C 215.519531 177.664062 215.652344 177.390625 215.800781 177.136719 C 216.035156 176.738281 215.460938 176.417969 215.199219 176.777344 C 215.058594 176.960938 214.914062 177.195312 214.769531 177.445312 C 214.261719 176.988281 213.828125 176.449219 213.484375 175.867188 C 213.742188 175.480469 214.011719 175.097656 214.3125 174.75 C 214.574219 174.445312 214.15625 174.050781 213.863281 174.324219 C 212.929688 175.195312 212.199219 176.15625 211.6875 177.277344 C 211.46875 176.957031 211.261719 176.621094 211.078125 176.238281 C 210.960938 175.984375 210.53125 176.140625 210.621094 176.410156 C 210.816406 176.976562 211.082031 177.511719 211.394531 178.007812 C 211.363281 178.097656 211.320312 178.171875 211.296875 178.257812 C 211.011719 179.144531 210.804688 180.441406 211.527344 181.15625 C 211.632812 181.261719 211.800781 181.199219 211.867188 181.082031 C 212.179688 180.511719 212.164062 179.792969 212.21875 179.113281 C 212.65625 179.601562 213.148438 180.03125 213.6875 180.398438 C 213.496094 181.644531 213.703125 182.835938 214.78125 183.453125 C 214.925781 183.539062 215.140625 183.417969 215.160156 183.253906 C 215.246094 182.519531 214.945312 181.789062 214.847656 181.058594 L 214.847656 181.054688 C 215.507812 181.351562 216.210938 181.566406 216.933594 181.667969 C 217.046875 182.726562 217.574219 183.710938 218.59375 184.179688 C 218.898438 184.320312 219.242188 183.933594 219.078125 183.644531 C 218.761719 183.089844 218.382812 182.574219 218.15625 181.96875 C 218.125 181.894531 218.125 181.8125 218.105469 181.734375 C 218.464844 181.726562 218.828125 181.699219 219.191406 181.636719 C 219.441406 181.59375 219.433594 181.203125 219.199219 181.152344 C 218.792969 181.066406 218.394531 180.980469 218 180.886719 C 218 180.589844 218.035156 180.289062 218.078125 179.992188 C 218.550781 180.035156 219.011719 179.996094 219.417969 179.828125 C 219.621094 179.746094 219.671875 179.441406 219.453125 179.339844 Z M 212.40625 178.164062 C 212.585938 177.515625 212.863281 176.894531 213.203125 176.308594 C 213.488281 177.03125 213.886719 177.648438 214.394531 178.175781 C 214.21875 178.554688 214.054688 178.957031 213.925781 179.378906 C 213.375 179.046875 212.863281 178.648438 212.40625 178.164062 Z M 216.964844 180.625 C 216.230469 180.421875 215.523438 180.175781 214.859375 179.875 C 214.902344 179.503906 214.988281 179.140625 215.09375 178.785156 C 215.269531 178.914062 215.4375 179.050781 215.636719 179.167969 C 216.070312 179.425781 216.605469 179.664062 217.171875 179.820312 C 217.082031 180.082031 217.003906 180.347656 216.964844 180.625 Z M 216.964844 180.625 " fill-opacity="1" fill-rule="nonzero"/><path fill="#ffffff" d="M 222.902344 182.847656 C 222.535156 182.457031 221.914062 182.425781 221.507812 182.054688 C 220.960938 181.554688 220.871094 180.710938 220.878906 180.007812 C 220.890625 179.558594 220.273438 179.527344 220.199219 179.957031 C 220.035156 180.929688 220.109375 181.90625 220.757812 182.691406 C 221.210938 183.25 222.320312 183.714844 222.917969 183.148438 C 223.007812 183.0625 222.976562 182.925781 222.902344 182.847656 Z M 222.902344 182.847656 " fill-opacity="1" fill-rule="nonzero"/><path fill="#ffffff" d="M 224.917969 181.421875 C 224.476562 181.089844 223.984375 181.015625 223.925781 180.375 C 223.882812 179.914062 223.199219 179.925781 223.203125 180.394531 C 223.21875 181.246094 223.980469 182.3125 224.90625 181.773438 C 225.03125 181.703125 225.023438 181.503906 224.917969 181.421875 Z M 224.917969 181.421875 " fill-opacity="1" fill-rule="nonzero"/><path fill="#ffffff" d="M 219.351562 177.203125 C 219.050781 176.714844 218.285156 176.644531 217.773438 176.449219 C 217.046875 176.175781 216.417969 175.707031 215.914062 175.121094 C 215.664062 174.832031 215.304688 175.214844 215.4375 175.507812 C 215.816406 176.3125 216.554688 176.902344 217.328125 177.308594 C 217.859375 177.59375 218.757812 178.035156 219.285156 177.582031 C 219.402344 177.480469 219.433594 177.339844 219.351562 177.203125 Z M 219.351562 177.203125 " fill-opacity="1" fill-rule="nonzero"/><path fill="#ffffff" d="M 219.738281 175.0625 C 219.511719 174.558594 219.0625 174.238281 218.785156 173.75 C 218.609375 173.4375 218.082031 173.707031 218.222656 174.039062 C 218.476562 174.628906 218.796875 175.289062 219.5 175.363281 C 219.65625 175.378906 219.8125 175.222656 219.738281 175.0625 Z M 219.738281 175.0625 " fill-opacity="1" fill-rule="nonzero"/><path fill="#ffffff" d="M 185.644531 220.5 C 182.355469 220.539062 177.035156 222.273438 176.375 226.117188 C 176.34375 226.28125 176.546875 226.457031 176.699219 226.335938 C 177.960938 225.34375 178.800781 223.929688 180.128906 222.957031 C 181.722656 221.785156 183.730469 221.175781 185.671875 220.925781 C 185.941406 220.890625 185.917969 220.496094 185.644531 220.5 Z M 185.644531 220.5 " fill-opacity="1" fill-rule="nonzero"/><path fill="#ffffff" d="M 183.589844 222.695312 C 181.960938 222.878906 180.457031 223.617188 179.160156 224.59375 C 177.929688 225.519531 176.273438 227.359375 176.59375 229.023438 C 176.625 229.171875 176.808594 229.214844 176.914062 229.125 C 178.023438 228.207031 178.554688 226.679688 179.617188 225.652344 C 180.808594 224.496094 182.246094 223.804688 183.746094 223.148438 C 184.019531 223.027344 183.84375 222.664062 183.589844 222.695312 Z M 183.589844 222.695312 " fill-opacity="1" fill-rule="nonzero"/><path fill="#ffffff" d="M 182.785156 225.875 C 180.917969 226.441406 179.417969 227.324219 178.359375 229.027344 C 177.769531 229.984375 177.023438 231.792969 177.816406 232.792969 C 177.898438 232.898438 178.09375 232.886719 178.175781 232.789062 C 178.867188 231.988281 178.808594 230.574219 179.292969 229.617188 C 180.019531 228.171875 181.472656 227.011719 182.953125 226.414062 C 183.25 226.296875 183.097656 225.78125 182.785156 225.875 Z M 182.785156 225.875 " fill-opacity="1" fill-rule="nonzero"/><path fill="#ffffff" d="M 186.273438 238.0625 C 186.394531 238.078125 186.503906 238.117188 186.625 238.125 C 186.925781 238.148438 187.074219 237.722656 186.777344 237.601562 C 186.511719 237.492188 186.265625 237.375 186.011719 237.261719 C 185.855469 236.597656 185.84375 235.910156 185.902344 235.230469 C 186.394531 235.359375 186.890625 235.378906 187.34375 235.195312 C 187.464844 235.144531 187.488281 234.960938 187.378906 234.882812 C 186.976562 234.605469 186.5 234.453125 186.023438 234.304688 C 186.058594 234.085938 186.09375 233.859375 186.140625 233.644531 C 186.199219 233.371094 185.769531 233.210938 185.625 233.449219 C 185.515625 233.640625 185.417969 233.847656 185.328125 234.0625 C 185.234375 234.027344 185.140625 233.996094 185.046875 233.957031 C 184.53125 233.714844 184.070312 233.371094 183.660156 232.976562 C 183.855469 232.570312 184.066406 232.175781 184.300781 231.804688 C 184.523438 231.453125 184.058594 231.066406 183.785156 231.398438 C 183.566406 231.671875 183.335938 232.003906 183.113281 232.367188 C 182.882812 232.082031 182.671875 231.78125 182.492188 231.464844 C 182.300781 231.136719 181.800781 231.394531 181.96875 231.734375 C 182.1875 232.1875 182.441406 232.621094 182.734375 233.019531 C 182.484375 233.496094 182.246094 234.007812 182.050781 234.546875 C 181.523438 233.972656 181.066406 233.324219 180.691406 232.582031 C 181.269531 231.136719 182.261719 229.867188 183.449219 228.878906 C 183.808594 228.578125 183.421875 227.996094 183.023438 228.273438 C 181.816406 229.113281 180.871094 230.050781 180.121094 231.234375 C 180.105469 231.183594 180.082031 231.140625 180.066406 231.085938 C 179.96875 230.78125 179.472656 230.929688 179.53125 231.238281 C 179.582031 231.484375 179.660156 231.71875 179.726562 231.960938 C 179.65625 232.09375 179.574219 232.214844 179.507812 232.355469 C 178.878906 233.726562 178.441406 235.882812 179.390625 237.175781 C 179.523438 237.363281 179.78125 237.328125 179.855469 237.105469 C 180.230469 236 180.109375 234.796875 180.351562 233.636719 C 180.714844 234.378906 181.179688 235.050781 181.722656 235.648438 C 181.300781 237.429688 181.441406 239.238281 182.902344 240.273438 C 183.054688 240.378906 183.269531 240.261719 183.277344 240.082031 C 183.316406 239.058594 182.886719 238.070312 182.785156 237.046875 C 182.769531 236.90625 182.769531 236.765625 182.769531 236.625 C 183.398438 237.105469 184.101562 237.476562 184.875 237.738281 C 185.082031 239.046875 185.714844 240.222656 186.957031 240.796875 C 187.257812 240.9375 187.464844 240.566406 187.371094 240.320312 C 187.070312 239.527344 186.605469 238.835938 186.273438 238.0625 Z M 184.796875 236.648438 C 184.09375 236.261719 183.449219 235.828125 182.867188 235.332031 C 182.960938 234.78125 183.128906 234.246094 183.332031 233.722656 C 183.53125 233.921875 183.746094 234.109375 183.984375 234.273438 C 184.292969 234.488281 184.652344 234.710938 185.039062 234.902344 C 184.890625 235.460938 184.804688 236.054688 184.796875 236.648438 Z M 184.796875 236.648438 " fill-opacity="1" fill-rule="nonzero"/><path fill="#ffffff" d="M 191.96875 239.320312 C 191.492188 238.664062 190.660156 238.539062 190.007812 238.105469 C 189.089844 237.492188 188.585938 236.125 188.578125 235.035156 C 188.570312 234.640625 188.035156 234.648438 187.976562 235.023438 C 187.785156 236.332031 187.824219 237.492188 188.6875 238.582031 C 189.332031 239.394531 190.839844 240.371094 191.851562 239.726562 C 191.972656 239.648438 192.066406 239.457031 191.96875 239.320312 Z M 191.96875 239.320312 " fill-opacity="1" fill-rule="nonzero"/><path fill="#ffffff" d="M 194.699219 236.523438 C 194.226562 236.214844 193.5625 236.367188 193.027344 236.191406 C 192.351562 235.96875 191.835938 235.410156 191.335938 234.9375 C 191.0625 234.679688 190.609375 235.035156 190.75 235.367188 C 191.128906 236.246094 191.785156 236.921875 192.65625 237.328125 C 193.316406 237.640625 194.441406 237.753906 194.847656 237.011719 C 194.949219 236.828125 194.859375 236.632812 194.699219 236.523438 Z M 194.699219 236.523438 " fill-opacity="1" fill-rule="nonzero"/><path fill="#ffffff" d="M 196.195312 233.703125 C 195.546875 233.503906 194.960938 233.644531 194.28125 233.28125 C 193.914062 233.085938 193.546875 233.648438 193.886719 233.902344 C 194.535156 234.382812 195.714844 234.945312 196.390625 234.226562 C 196.574219 234.027344 196.40625 233.765625 196.195312 233.703125 Z M 196.195312 233.703125 " fill-opacity="1" fill-rule="nonzero"/><path fill="#ffffff" d="M 188.085938 233.121094 C 187.878906 232.679688 187.199219 232.597656 186.796875 232.363281 C 186.203125 232.019531 185.714844 231.46875 185.261719 230.964844 C 185.019531 230.699219 184.582031 231.082031 184.789062 231.367188 C 185.175781 231.910156 185.585938 232.40625 186.09375 232.832031 C 186.515625 233.191406 187.496094 233.875 188.019531 233.394531 C 188.097656 233.328125 188.132812 233.21875 188.085938 233.121094 Z M 188.085938 233.121094 " fill-opacity="1" fill-rule="nonzero"/><path fill="#ffffff" d="M 110.664062 244.78125 C 109.492188 242.632812 108.136719 240.90625 107.726562 238.441406 C 107.332031 236.070312 108.234375 233.859375 109.125 231.734375 C 109.265625 231.40625 108.808594 231.089844 108.582031 231.394531 C 105.585938 235.46875 105.660156 242.203125 110.3125 245.125 C 110.53125 245.261719 110.78125 245 110.664062 244.78125 Z M 110.664062 244.78125 " fill-opacity="1" fill-rule="nonzero"/><path fill="#ffffff" d="M 105.269531 233.664062 C 105.351562 233.367188 104.871094 233.226562 104.757812 233.5 C 103.015625 237.578125 102.695312 242.847656 105.546875 246.527344 C 105.792969 246.839844 106.226562 246.527344 106.109375 246.183594 C 104.640625 241.835938 103.984375 238.210938 105.269531 233.664062 Z M 105.269531 233.664062 " fill-opacity="1" fill-rule="nonzero"/><path fill="#ffffff" d="M 101.242188 236.882812 C 101.296875 236.617188 100.90625 236.445312 100.75 236.667969 C 99.109375 239.070312 98.464844 243.898438 100.382812 246.300781 C 100.546875 246.496094 100.808594 246.304688 100.820312 246.113281 C 100.886719 245.269531 100.726562 244.464844 100.617188 243.628906 C 100.296875 241.140625 100.742188 239.210938 101.242188 236.882812 Z M 101.242188 236.882812 " fill-opacity="1" fill-rule="nonzero"/><path fill="#ffffff" d="M 98.238281 240 C 98.371094 239.613281 97.828125 239.347656 97.648438 239.730469 C 96.714844 241.726562 96.542969 243.824219 97.882812 245.691406 C 98.09375 245.984375 98.5625 245.75 98.445312 245.40625 C 97.828125 243.613281 97.609375 241.8125 98.238281 240 Z M 98.238281 240 " fill-opacity="1" fill-rule="nonzero"/><path fill="#ffffff" d="M 189.925781 284.8125 C 187.988281 284.292969 185.992188 284.136719 184.074219 283.5 C 179.777344 282.070312 176.308594 278.613281 173.980469 274.820312 C 173.800781 274.53125 173.40625 274.789062 173.539062 275.082031 C 176.101562 280.746094 183.210938 287.082031 189.972656 285.242188 C 190.210938 285.175781 190.113281 284.867188 189.925781 284.8125 Z M 189.925781 284.8125 " fill-opacity="1" fill-rule="nonzero"/><path fill="#ffffff" d="M 186.777344 289.015625 C 185.476562 288.3125 184.019531 287.945312 182.664062 287.34375 C 179.734375 286.042969 177.953125 284.015625 176 281.652344 C 175.808594 281.421875 175.410156 281.601562 175.523438 281.902344 C 177.007812 285.855469 182.300781 290.039062 186.699219 289.539062 C 186.984375 289.511719 187.003906 289.140625 186.777344 289.015625 Z M 186.777344 289.015625 " fill-opacity="1" fill-rule="nonzero"/><path fill="#ffffff" d="M 184.957031 291.960938 C 182.144531 291.238281 179.59375 290.867188 177.851562 288.265625 C 177.644531 287.957031 177.125 288.253906 177.289062 288.585938 C 178.644531 291.324219 181.808594 293.308594 184.925781 292.632812 C 185.253906 292.558594 185.296875 292.050781 184.957031 291.960938 Z M 184.957031 291.960938 " fill-opacity="1" fill-rule="nonzero"/><path fill="#ffffff" d="M 183.4375 295.253906 C 182.964844 294.949219 182.339844 294.9375 181.820312 294.695312 C 181.371094 294.476562 181.007812 294.101562 180.71875 293.703125 C 180.441406 293.320312 179.878906 293.703125 180.109375 294.109375 C 180.429688 294.675781 180.832031 295.125 181.375 295.492188 C 181.886719 295.828125 182.796875 296.160156 183.371094 295.824219 C 183.570312 295.707031 183.664062 295.40625 183.4375 295.253906 Z M 183.4375 295.253906 " fill-opacity="1" fill-rule="nonzero"/><path fill="#ffffff" d="M 121.34375 129.679688 C 114.96875 130.179688 106.621094 135.53125 106.628906 142.644531 C 106.628906 143.085938 107.207031 143.230469 107.382812 142.808594 C 108.800781 139.402344 110.148438 136.699219 113.089844 134.351562 C 115.574219 132.367188 118.601562 131.480469 121.46875 130.234375 C 121.722656 130.125 121.640625 129.65625 121.34375 129.679688 Z M 121.34375 129.679688 " fill-opacity="1" fill-rule="nonzero"/><path fill="#ffffff" d="M 117.105469 127.105469 C 112.019531 127.488281 105.515625 130.675781 103.886719 135.902344 C 103.796875 136.1875 104.140625 136.539062 104.402344 136.285156 C 106.347656 134.382812 107.765625 132.246094 110.023438 130.636719 C 112.140625 129.128906 114.664062 128.246094 117.15625 127.59375 C 117.417969 127.527344 117.394531 127.085938 117.105469 127.105469 Z M 117.105469 127.105469 " fill-opacity="1" fill-rule="nonzero"/><path fill="#ffffff" d="M 112.671875 125.703125 C 108.828125 125.472656 104.121094 127.769531 102.269531 131.265625 C 102.101562 131.585938 102.539062 131.8125 102.789062 131.644531 C 104.316406 130.617188 105.605469 129.289062 107.171875 128.292969 C 108.839844 127.230469 110.792969 126.609375 112.714844 126.179688 C 112.980469 126.121094 112.949219 125.71875 112.671875 125.703125 Z M 112.671875 125.703125 " fill-opacity="1" fill-rule="nonzero"/><path fill="#ffffff" d="M 107.261719 124.605469 C 105.285156 124.476562 103.230469 125.308594 102.496094 127.265625 C 102.386719 127.554688 102.78125 127.769531 102.988281 127.570312 C 104.257812 126.363281 105.464844 125.445312 107.265625 125.261719 C 107.640625 125.226562 107.632812 124.628906 107.261719 124.605469 Z M 107.261719 124.605469 " fill-opacity="1" fill-rule="nonzero"/><path fill="#ffffff" d="M 189.660156 94.015625 C 184.242188 94.671875 177.40625 97.769531 176.066406 103.699219 C 176 104.003906 176.421875 104.222656 176.621094 103.96875 C 178.460938 101.621094 179.679688 99.347656 182.21875 97.519531 C 184.417969 95.941406 187.078125 95.046875 189.714844 94.554688 C 190.050781 94.492188 190.011719 93.972656 189.660156 94.015625 Z M 189.660156 94.015625 " fill-opacity="1" fill-rule="nonzero"/><path fill="#ffffff" d="M 190.273438 88.980469 C 184.4375 89.65625 177.867188 93.996094 175.0625 99.152344 C 174.859375 99.523438 175.328125 99.828125 175.625 99.574219 C 177.949219 97.609375 179.890625 95.308594 182.371094 93.507812 C 184.835938 91.71875 187.582031 90.628906 190.378906 89.496094 C 190.648438 89.386719 190.585938 88.945312 190.273438 88.980469 Z M 190.273438 88.980469 " fill-opacity="1" fill-rule="nonzero"/><path fill="#ffffff" d="M 187.664062 85.808594 C 185.496094 85.996094 183.507812 86.882812 181.65625 87.980469 C 179.765625 89.105469 177.316406 90.835938 176.53125 92.964844 C 176.429688 93.238281 176.710938 93.429688 176.945312 93.296875 C 178.542969 92.40625 179.773438 90.808594 181.230469 89.683594 C 183.21875 88.148438 185.511719 87.21875 187.78125 86.195312 C 187.976562 86.109375 187.863281 85.792969 187.664062 85.808594 Z M 187.664062 85.808594 " fill-opacity="1" fill-rule="nonzero"/><path fill="#ffffff" d="M 185.414062 82.917969 C 183.070312 83.292969 180.660156 84.429688 179.335938 86.472656 C 179.171875 86.726562 179.523438 87.074219 179.769531 86.886719 C 181.617188 85.46875 183.160156 84.058594 185.492188 83.472656 C 185.835938 83.386719 185.777344 82.859375 185.414062 82.917969 Z M 185.414062 82.917969 " fill-opacity="1" fill-rule="nonzero"/><path fill="#ffffff" d="M 246.074219 130.492188 C 245.738281 130.546875 245.808594 131.082031 246.140625 131.082031 C 249.714844 131.082031 253.25 131.082031 256.742188 131.945312 C 260.453125 132.863281 262.1875 135.167969 264.910156 137.519531 C 265.136719 137.710938 265.519531 137.441406 265.4375 137.167969 C 263.289062 129.832031 252.015625 129.585938 246.074219 130.492188 Z M 246.074219 130.492188 " fill-opacity="1" fill-rule="nonzero"/><path fill="#ffffff" d="M 267.417969 132.960938 C 264.582031 128.410156 258 126.507812 252.980469 127.789062 C 252.808594 127.832031 252.761719 128.132812 252.980469 128.136719 C 255.515625 128.15625 257.863281 128.34375 260.289062 129.167969 C 262.859375 130.042969 264.808594 131.875 266.894531 133.515625 C 267.265625 133.808594 267.628906 133.300781 267.417969 132.960938 Z M 267.417969 132.960938 " fill-opacity="1" fill-rule="nonzero"/><path fill="#ffffff" d="M 269.226562 129.695312 C 267.945312 126.625 263.203125 124.894531 260.09375 125.003906 C 259.742188 125.019531 259.546875 125.53125 259.945312 125.65625 C 261.71875 126.21875 263.453125 126.714844 265.097656 127.605469 C 266.398438 128.316406 267.441406 129.402344 268.78125 130.039062 C 268.988281 130.136719 269.339844 129.96875 269.226562 129.695312 Z M 269.226562 129.695312 " fill-opacity="1" fill-rule="nonzero"/><path fill="#ffffff" d="M 265.664062 124.054688 C 265.394531 124.074219 265.339844 124.503906 265.601562 124.589844 C 266.621094 124.925781 267.574219 125.199219 268.476562 125.808594 C 269.210938 126.304688 269.773438 127.054688 270.539062 127.492188 C 270.824219 127.65625 271.234375 127.414062 271.136719 127.066406 C 270.558594 125.035156 267.574219 123.917969 265.664062 124.054688 Z M 265.664062 124.054688 " fill-opacity="1" fill-rule="nonzero"/><path fill="#ffffff" d="M 271.101562 124.261719 C 270.800781 124.105469 270.453125 124.535156 270.734375 124.757812 C 270.988281 124.953125 271.019531 125.332031 271.148438 125.609375 C 271.222656 125.761719 271.460938 125.824219 271.542969 125.636719 C 271.789062 125.085938 271.652344 124.550781 271.101562 124.261719 Z M 271.101562 124.261719 " fill-opacity="1" fill-rule="nonzero"/><path fill="#ffffff" d="M 266.335938 228.84375 C 266.199219 228.558594 265.796875 228.789062 265.863281 229.0625 C 266.40625 231.257812 266.78125 233.410156 266.796875 235.675781 C 266.8125 239.007812 265.496094 241.769531 264.378906 244.796875 C 264.234375 245.191406 264.75 245.375 264.988281 245.097656 C 268.691406 240.808594 268.644531 233.75 266.335938 228.84375 Z M 266.335938 228.84375 " fill-opacity="1" fill-rule="nonzero"/><path fill="#ffffff" d="M 269.359375 230.066406 C 269.195312 229.832031 268.835938 229.96875 268.894531 230.257812 C 269.40625 232.753906 270.011719 235.109375 269.898438 237.6875 C 269.769531 240.625 268.429688 243.132812 267.191406 245.703125 C 267.015625 246.074219 267.449219 246.5625 267.789062 246.210938 C 271.671875 242.15625 272.582031 234.777344 269.359375 230.066406 Z M 269.359375 230.066406 " fill-opacity="1" fill-rule="nonzero"/><path fill="#ffffff" d="M 272.988281 232.664062 C 272.867188 232.433594 272.453125 232.574219 272.5 232.832031 C 272.886719 234.976562 273.191406 237.015625 273.070312 239.203125 C 272.910156 242.066406 271.636719 244.550781 270.578125 247.148438 C 270.402344 247.574219 270.953125 247.980469 271.265625 247.605469 C 274.597656 243.617188 275.371094 237.273438 272.988281 232.664062 Z M 272.988281 232.664062 " fill-opacity="1" fill-rule="nonzero"/><path fill="#ffffff" d="M 276.777344 239.007812 C 276.683594 238.613281 276.011719 238.558594 276.015625 239.019531 C 276.046875 242.027344 275.371094 244.554688 274.597656 247.421875 C 274.496094 247.789062 275.003906 248.144531 275.269531 247.816406 C 277.21875 245.433594 277.46875 241.917969 276.777344 239.007812 Z M 276.777344 239.007812 " fill-opacity="1" fill-rule="nonzero"/><path fill="#ffffff" d="M 279.410156 242.996094 C 279.339844 242.542969 278.601562 242.636719 278.613281 243.089844 C 278.65625 244.839844 277.933594 246.425781 277.085938 247.917969 C 276.871094 248.285156 277.308594 248.738281 277.660156 248.433594 C 279.246094 247.039062 279.722656 245.046875 279.410156 242.996094 Z M 279.410156 242.996094 " fill-opacity="1" fill-rule="nonzero"/><g fill="#ffffff" fill-opacity="1"><g transform="translate(131.219705, 317.734542)"><g><path d="M 7.671875 -3.109375 L 11.34375 -1.453125 L 12.125 -7.953125 L 12.078125 -7.984375 Z M 3.421875 1.546875 L 0.234375 0.109375 L 11.859375 -11.96875 L 15.328125 -10.40625 L 13.921875 6.265625 L 10.640625 4.796875 L 11.0625 1.421875 L 5.75 -0.984375 Z M 3.421875 1.546875 "/></g></g></g><g fill="#ffffff" fill-opacity="1"><g transform="translate(150.38862, 325.664309)"><g><path d="M 4.703125 1.40625 L 1.546875 0.453125 L 6.0625 -14.671875 L 9.21875 -13.71875 Z M 4.703125 1.40625 "/></g></g></g><g fill="#ffffff" fill-opacity="1"><g transform="translate(161.310067, 328.681735)"><g/></g></g><g fill="#ffffff" fill-opacity="1"><g transform="translate(172.120585, 330.775025)"><g><path d="M 5.125 -2.453125 L 12.9375 -1.828125 L 12.703125 1.015625 L 1.609375 0.125 L 2.859375 -15.609375 L 6.140625 -15.34375 Z M 5.125 -2.453125 "/></g></g></g><g fill="#ffffff" fill-opacity="1"><g transform="translate(190.733658, 331.903031)"><g><path d="M 5.203125 -6.453125 L 9.21875 -6.78125 L 6.734375 -12.84375 L 6.6875 -12.828125 Z M 3.734375 -0.3125 L 0.265625 -0.015625 L 4.5625 -16.203125 L 8.359375 -16.53125 L 15.21875 -1.28125 L 11.625 -0.96875 L 10.375 -4.125 L 4.5625 -3.640625 Z M 3.734375 -0.3125 "/></g></g></g><g fill="#ffffff" fill-opacity="1"><g transform="translate(211.762617, 329.651219)"><g><path d="M 2.1875 -10.515625 L 5.921875 -11.5 C 6.640625 -11.6875 7.15625 -11.976562 7.46875 -12.375 C 7.78125 -12.769531 7.863281 -13.238281 7.71875 -13.78125 C 7.570312 -14.3125 7.28125 -14.671875 6.84375 -14.859375 C 6.414062 -15.046875 5.785156 -15.03125 4.953125 -14.8125 L 1.296875 -13.859375 Z M 3.9375 -3.859375 L 7.828125 -4.875 C 8.617188 -5.082031 9.175781 -5.421875 9.5 -5.890625 C 9.832031 -6.359375 9.894531 -6.976562 9.6875 -7.75 C 9.539062 -8.332031 9.21875 -8.726562 8.71875 -8.9375 C 8.226562 -9.15625 7.625 -9.171875 6.90625 -8.984375 L 2.859375 -7.921875 Z M -2.453125 -15.671875 L 4.953125 -17.625 C 6.484375 -18.019531 7.742188 -17.957031 8.734375 -17.4375 C 9.734375 -16.914062 10.382812 -16.085938 10.6875 -14.953125 C 11.09375 -13.390625 10.738281 -12.1875 9.625 -11.34375 C 11.363281 -11.144531 12.476562 -10.113281 12.96875 -8.25 C 13.125 -7.632812 13.160156 -7.023438 13.078125 -6.421875 C 12.992188 -5.828125 12.765625 -5.226562 12.390625 -4.625 C 12.023438 -4.03125 11.53125 -3.546875 10.90625 -3.171875 C 10.28125 -2.804688 9.316406 -2.453125 8.015625 -2.109375 L 1.5625 -0.40625 Z M -2.453125 -15.671875 "/></g></g></g><g fill="#ffffff" fill-opacity="1"><g transform="translate(232.015447, 323.804275)"><g><path d="M 1.703125 -6.109375 C 2.023438 -5.398438 2.546875 -4.957031 3.265625 -4.78125 C 3.984375 -4.601562 4.828125 -4.738281 5.796875 -5.1875 C 6.773438 -5.625 7.445312 -6.113281 7.8125 -6.65625 C 8.175781 -7.207031 8.21875 -7.789062 7.9375 -8.40625 C 7.78125 -8.769531 7.503906 -9.023438 7.109375 -9.171875 C 6.722656 -9.316406 5.988281 -9.28125 4.90625 -9.0625 L 2.203125 -8.53125 C 0.484375 -8.1875 -0.789062 -8.203125 -1.625 -8.578125 C -2.46875 -8.953125 -3.144531 -9.695312 -3.65625 -10.8125 C -4.238281 -12.101562 -4.253906 -13.367188 -3.703125 -14.609375 C -3.160156 -15.859375 -1.96875 -16.898438 -0.125 -17.734375 C 1.695312 -18.566406 3.289062 -18.734375 4.65625 -18.234375 C 6.019531 -17.742188 6.992188 -16.878906 7.578125 -15.640625 L 4.6875 -14.3125 C 4.300781 -15 3.785156 -15.414062 3.140625 -15.5625 C 2.492188 -15.71875 1.707031 -15.582031 0.78125 -15.15625 C 0.03125 -14.8125 -0.5 -14.378906 -0.8125 -13.859375 C -1.132812 -13.335938 -1.175781 -12.8125 -0.9375 -12.28125 C -0.769531 -11.925781 -0.53125 -11.671875 -0.21875 -11.515625 C 0.0820312 -11.367188 0.488281 -11.347656 1 -11.453125 L 5.25 -12.234375 C 6.789062 -12.535156 7.96875 -12.488281 8.78125 -12.09375 C 9.601562 -11.695312 10.226562 -11.023438 10.65625 -10.078125 C 11.363281 -8.515625 11.359375 -7.085938 10.640625 -5.796875 C 9.921875 -4.515625 8.757812 -3.507812 7.15625 -2.78125 C 5.082031 -1.84375 3.335938 -1.582031 1.921875 -2 C 0.503906 -2.425781 -0.53125 -3.359375 -1.1875 -4.796875 Z M 1.703125 -6.109375 "/></g></g></g><g fill="#ffffff" fill-opacity="1"><g transform="translate(125.653953, 110.672268)"><g><path d="M -11.296875 -14.046875 L -10.546875 -16.78125 L 3.546875 -12.90625 L 2.734375 -9.96875 L -8.890625 -6.984375 L -8.890625 -6.953125 L 1.15625 -4.1875 L 0.390625 -1.4375 L -13.703125 -5.3125 L -12.84375 -8.40625 L -1.5 -11.3125 L -1.484375 -11.34375 Z M -11.296875 -14.046875 "/></g></g></g><g fill="#ffffff" fill-opacity="1"><g transform="translate(130.766639, 93.525846)"><g><path d="M -4.125 -7.171875 C -2.695312 -6.273438 -1.414062 -5.914062 -0.28125 -6.09375 C 0.84375 -6.28125 1.710938 -6.863281 2.328125 -7.84375 C 2.941406 -8.832031 3.066406 -9.875 2.703125 -10.96875 C 2.347656 -12.0625 1.476562 -13.039062 0.09375 -13.90625 C -1.300781 -14.78125 -2.5625 -15.140625 -3.6875 -14.984375 C -4.820312 -14.835938 -5.707031 -14.253906 -6.34375 -13.234375 C -6.976562 -12.222656 -7.117188 -11.175781 -6.765625 -10.09375 C -6.410156 -9.019531 -5.53125 -8.046875 -4.125 -7.171875 Z M -5.734375 -4.59375 C -7.859375 -5.925781 -9.128906 -7.492188 -9.546875 -9.296875 C -9.960938 -11.097656 -9.628906 -12.863281 -8.546875 -14.59375 C -7.453125 -16.332031 -6.007812 -17.414062 -4.21875 -17.84375 C -2.425781 -18.28125 -0.453125 -17.828125 1.703125 -16.484375 C 3.796875 -15.171875 5.0625 -13.613281 5.5 -11.8125 C 5.9375 -10.007812 5.601562 -8.226562 4.5 -6.46875 C 3.445312 -4.78125 2.03125 -3.695312 0.25 -3.21875 C -1.519531 -2.75 -3.515625 -3.207031 -5.734375 -4.59375 Z M -5.734375 -4.59375 "/></g></g></g><g fill="#ffffff" fill-opacity="1"><g transform="translate(141.227231, 77.935377)"><g><path d="M 9.796875 -8.78125 L 7.03125 -6.296875 L 1.640625 -8.15625 L 2.765625 -2.484375 L 0.109375 -0.109375 L -1.359375 -8.8125 L -9.4375 -11.15625 L -6.71875 -13.59375 L -1.640625 -11.8125 L -2.8125 -17.109375 L -0.171875 -19.46875 L 1.171875 -11.265625 Z M 9.796875 -8.78125 "/></g></g></g><g fill="#ffffff" fill-opacity="1"><g transform="translate(153.306401, 66.970335)"><g><path d="M 5.9375 -8.65625 L 3.3125 -14.59375 L 2.078125 -14.0625 L 2.65625 -7.203125 Z M 9.859375 -7.1875 L 16.890625 -10.296875 L 17.9375 -7.9375 L 8.171875 -3.609375 L 6.90625 -6.453125 L 2.890625 -4.6875 L 3.203125 -1.421875 L 0.265625 -0.125 L -0.765625 -15.640625 L 11.875 -21.234375 L 12.921875 -18.859375 L 6.046875 -15.8125 L 7.28125 -13.015625 L 13.5 -15.765625 L 14.546875 -13.40625 L 8.328125 -10.65625 Z M 9.859375 -7.1875 "/></g></g></g><g fill="#ffffff" fill-opacity="1"><g transform="translate(175.064336, 58.498948)"><g><path d="M 7.71875 -0.84375 L 4.671875 -0.515625 L 3.375 -12.453125 L -1 -11.96875 L -1.28125 -14.5625 L 10.515625 -15.84375 L 10.796875 -13.25 L 6.421875 -12.78125 Z M 7.71875 -0.84375 "/></g></g></g><g fill="#ffffff" fill-opacity="1"><g transform="translate(190.67738, 57.152627)"><g><path d="M 13.875 -10.0625 L 6.21875 -11.203125 L 5.765625 -8.1875 L 12.8125 -7.140625 L 12.4375 -4.578125 L 5.390625 -5.625 L 4.828125 -1.875 L 12.828125 -0.671875 L 12.4375 1.875 L 1.46875 0.21875 L 3.640625 -14.234375 L 14.265625 -12.640625 Z M 13.875 -10.0625 "/></g></g></g><g fill="#ffffff" fill-opacity="1"><g transform="translate(207.024824, 59.969109)"><g><path d="M 10.703125 -4.15625 C 11.429688 -3.832031 12.035156 -3.734375 12.515625 -3.859375 C 12.992188 -3.984375 13.378906 -4.375 13.671875 -5.03125 C 13.910156 -5.570312 13.9375 -6.070312 13.75 -6.53125 C 13.5625 -6.988281 13.144531 -7.363281 12.5 -7.65625 L 9.03125 -9.203125 L 7.4375 -5.625 Z M 7.328125 -12.71875 L 14.0625 -9.703125 C 15.4375 -9.085938 16.316406 -8.253906 16.703125 -7.203125 C 17.085938 -6.148438 17.046875 -5.101562 16.578125 -4.0625 C 15.878906 -2.519531 14.71875 -1.769531 13.09375 -1.8125 C 13.632812 -1.28125 13.921875 -0.734375 13.953125 -0.171875 C 13.992188 0.390625 13.75 1.265625 13.21875 2.453125 C 12.675781 3.640625 12.398438 4.359375 12.390625 4.609375 C 12.390625 4.859375 12.476562 5.066406 12.65625 5.234375 L 12.5 5.59375 L 9.4375 4.21875 C 9.507812 3.53125 9.796875 2.625 10.296875 1.5 C 10.722656 0.550781 10.929688 -0.0820312 10.921875 -0.40625 C 10.910156 -0.738281 10.785156 -1.035156 10.546875 -1.296875 C 10.316406 -1.566406 9.894531 -1.835938 9.28125 -2.109375 L 6.421875 -3.390625 L 4.09375 1.828125 L 1.359375 0.609375 Z M 7.328125 -12.71875 "/></g></g></g><g fill="#ffffff" fill-opacity="1"><g transform="translate(222.841292, 67.491641)"><g><path d="M 17.484375 -4.328125 L 19.65625 -2.484375 L 10.21875 8.65625 L 7.890625 6.6875 L 10.078125 -5.125 L 10.046875 -5.140625 L 3.3125 2.8125 L 1.125 0.953125 L 10.5625 -10.1875 L 13.03125 -8.09375 L 10.90625 3.40625 L 10.921875 3.421875 Z M 17.484375 -4.328125 "/></g></g></g><g fill="#ffffff" fill-opacity="1"><g transform="translate(236.229003, 79.413229)"><g><path d="M 11.5625 8.203125 C 10.050781 9.191406 8.628906 9.53125 7.296875 9.21875 C 5.972656 8.90625 4.757812 7.910156 3.65625 6.234375 C 2.6875 4.765625 2.285156 3.347656 2.453125 1.984375 C 2.628906 0.617188 3.453125 -0.550781 4.921875 -1.53125 L 12.984375 -6.859375 L 14.703125 -4.25 L 6.796875 0.984375 C 5.992188 1.515625 5.515625 2.113281 5.359375 2.78125 C 5.203125 3.445312 5.367188 4.144531 5.859375 4.875 C 6.347656 5.613281 6.921875 6.0625 7.578125 6.21875 C 8.242188 6.375 8.960938 6.195312 9.734375 5.6875 L 17.765625 0.375 L 19.484375 2.953125 Z M 11.5625 8.203125 "/></g></g></g><g fill="#ffffff" fill-opacity="1"><g transform="translate(245.755787, 94.269508)"><g><path d="M 4.390625 15.03125 L 3.59375 12.28125 L 13.0625 9.515625 L 15.328125 8.90625 L 15.296875 8.828125 L 2.8125 9.625 L 1.984375 6.765625 L 12.953125 0.78125 L 12.9375 0.71875 L 10.6875 1.40625 L 1.21875 4.171875 L 0.421875 1.421875 L 14.4375 -2.6875 L 15.6875 1.609375 L 5.375 7.359375 L 5.390625 7.421875 L 17.171875 6.671875 L 18.40625 10.921875 Z M 4.390625 15.03125 "/></g></g></g><g fill="#ffffff" fill-opacity="1"><g transform="translate(61.084268, 197.917919)"><g><path d="M 13.25 0 L 1.765625 0 L 1.765625 -15.5625 L 13.09375 -15.5625 L 13.09375 -13.703125 L 3.859375 -13.703125 L 3.859375 -8.9375 L 12.375 -8.9375 L 12.375 -7.078125 L 3.859375 -7.078125 L 3.859375 -1.859375 L 13.25 -1.859375 Z M 13.25 0 "/></g></g></g><g fill="#ffffff" fill-opacity="1"><g transform="translate(75.1691, 197.917919)"><g><path d="M 10.921875 -11.015625 C 10.878906 -12.003906 10.507812 -12.773438 9.8125 -13.328125 C 9.125 -13.890625 8.210938 -14.171875 7.078125 -14.171875 C 5.929688 -14.171875 5.050781 -13.9375 4.4375 -13.46875 C 3.820312 -13 3.515625 -12.328125 3.515625 -11.453125 C 3.515625 -10.972656 3.648438 -10.5625 3.921875 -10.21875 C 4.191406 -9.882812 4.671875 -9.640625 5.359375 -9.484375 L 9.8125 -8.46875 C 11.007812 -8.195312 11.894531 -7.695312 12.46875 -6.96875 C 13.050781 -6.238281 13.34375 -5.347656 13.34375 -4.296875 C 13.34375 -2.753906 12.773438 -1.582031 11.640625 -0.78125 C 10.515625 0.0078125 9.050781 0.40625 7.25 0.40625 C 5.863281 0.40625 4.773438 0.234375 3.984375 -0.109375 C 3.191406 -0.460938 2.488281 -1.023438 1.875 -1.796875 C 1.257812 -2.566406 0.953125 -3.644531 0.953125 -5.03125 L 2.921875 -5.03125 C 2.921875 -3.875 3.304688 -2.976562 4.078125 -2.34375 C 4.847656 -1.707031 5.894531 -1.390625 7.21875 -1.390625 C 8.507812 -1.390625 9.507812 -1.613281 10.21875 -2.0625 C 10.9375 -2.519531 11.296875 -3.171875 11.296875 -4.015625 C 11.296875 -4.773438 11.082031 -5.34375 10.65625 -5.71875 C 10.226562 -6.101562 9.394531 -6.4375 8.15625 -6.71875 L 4.796875 -7.515625 C 3.679688 -7.765625 2.847656 -8.203125 2.296875 -8.828125 C 1.742188 -9.460938 1.46875 -10.242188 1.46875 -11.171875 C 1.46875 -12.566406 1.9375 -13.71875 2.875 -14.625 C 3.820312 -15.53125 5.140625 -15.984375 6.828125 -15.984375 C 8.734375 -15.984375 10.203125 -15.582031 11.234375 -14.78125 C 12.273438 -13.988281 12.832031 -12.734375 12.90625 -11.015625 Z M 10.921875 -11.015625 "/></g></g></g><g fill="#ffffff" fill-opacity="1"><g transform="translate(89.518486, 197.917919)"><g><path d="M 5.5 -13.703125 L 0.265625 -13.703125 L 0.265625 -15.5625 L 12.90625 -15.5625 L 12.90625 -13.703125 L 7.609375 -13.703125 L 7.609375 0 L 5.5 0 Z M 5.5 -13.703125 "/></g></g></g><g fill="#ffffff" fill-opacity="1"><g transform="translate(102.682672, 197.917919)"><g><path d="M 4.140625 0 L 1.890625 0 L 1.890625 -2.296875 L 4.140625 -2.296875 Z M 4.140625 0 "/></g></g></g><g fill="#ffffff" fill-opacity="1"><g transform="translate(265.680629, 197.917919)"><g><path d="M 0.953125 -9.78125 C 0.953125 -11.570312 1.414062 -12.929688 2.34375 -13.859375 C 3.269531 -14.785156 4.566406 -15.25 6.234375 -15.25 C 7.628906 -15.25 8.769531 -14.820312 9.65625 -13.96875 C 10.539062 -13.125 10.984375 -12.035156 10.984375 -10.703125 C 10.984375 -9.648438 10.726562 -8.765625 10.21875 -8.046875 C 9.707031 -7.335938 8.957031 -6.707031 7.96875 -6.15625 L 5.34375 -4.71875 C 3.789062 -3.875 2.914062 -2.898438 2.71875 -1.796875 L 10.984375 -1.796875 L 10.984375 0 L 0.5625 0 C 0.613281 -1.4375 0.921875 -2.628906 1.484375 -3.578125 C 2.054688 -4.535156 2.941406 -5.359375 4.140625 -6.046875 L 6.875 -7.640625 C 7.601562 -8.054688 8.128906 -8.488281 8.453125 -8.9375 C 8.785156 -9.382812 8.953125 -10 8.953125 -10.78125 C 8.953125 -11.550781 8.679688 -12.203125 8.140625 -12.734375 C 7.597656 -13.265625 6.863281 -13.53125 5.9375 -13.53125 C 4.914062 -13.53125 4.148438 -13.191406 3.640625 -12.515625 C 3.128906 -11.847656 2.867188 -10.9375 2.859375 -9.78125 Z M 0.953125 -9.78125 "/></g></g></g><g fill="#ffffff" fill-opacity="1"><g transform="translate(277.73369, 197.917919)"><g><path d="M 9.21875 -7.40625 C 9.21875 -9.445312 8.945312 -10.976562 8.40625 -12 C 7.863281 -13.019531 7.070312 -13.53125 6.03125 -13.53125 C 5 -13.53125 4.207031 -13.019531 3.65625 -12 C 3.113281 -10.976562 2.84375 -9.445312 2.84375 -7.40625 C 2.84375 -5.4375 3.113281 -3.925781 3.65625 -2.875 C 4.195312 -1.820312 4.988281 -1.296875 6.03125 -1.296875 C 7.070312 -1.296875 7.863281 -1.800781 8.40625 -2.8125 C 8.945312 -3.832031 9.21875 -5.363281 9.21875 -7.40625 Z M 11.25 -7.40625 C 11.25 -4.90625 10.796875 -2.976562 9.890625 -1.625 C 8.992188 -0.269531 7.707031 0.40625 6.03125 0.40625 C 4.28125 0.40625 2.972656 -0.296875 2.109375 -1.703125 C 1.242188 -3.109375 0.8125 -5.007812 0.8125 -7.40625 C 0.8125 -9.875 1.253906 -11.796875 2.140625 -13.171875 C 3.023438 -14.554688 4.320312 -15.25 6.03125 -15.25 C 7.707031 -15.25 8.992188 -14.5625 9.890625 -13.1875 C 10.796875 -11.8125 11.25 -9.882812 11.25 -7.40625 Z M 11.25 -7.40625 "/></g></g></g><g fill="#ffffff" fill-opacity="1"><g transform="translate(289.786751, 197.917919)"><g><path d="M 0.953125 -9.78125 C 0.953125 -11.570312 1.414062 -12.929688 2.34375 -13.859375 C 3.269531 -14.785156 4.566406 -15.25 6.234375 -15.25 C 7.628906 -15.25 8.769531 -14.820312 9.65625 -13.96875 C 10.539062 -13.125 10.984375 -12.035156 10.984375 -10.703125 C 10.984375 -9.648438 10.726562 -8.765625 10.21875 -8.046875 C 9.707031 -7.335938 8.957031 -6.707031 7.96875 -6.15625 L 5.34375 -4.71875 C 3.789062 -3.875 2.914062 -2.898438 2.71875 -1.796875 L 10.984375 -1.796875 L 10.984375 0 L 0.5625 0 C 0.613281 -1.4375 0.921875 -2.628906 1.484375 -3.578125 C 2.054688 -4.535156 2.941406 -5.359375 4.140625 -6.046875 L 6.875 -7.640625 C 7.601562 -8.054688 8.128906 -8.488281 8.453125 -8.9375 C 8.785156 -9.382812 8.953125 -10 8.953125 -10.78125 C 8.953125 -11.550781 8.679688 -12.203125 8.140625 -12.734375 C 7.597656 -13.265625 6.863281 -13.53125 5.9375 -13.53125 C 4.914062 -13.53125 4.148438 -13.191406 3.640625 -12.515625 C 3.128906 -11.847656 2.867188 -10.9375 2.859375 -9.78125 Z M 0.953125 -9.78125 "/></g></g></g><g fill="#ffffff" fill-opacity="1"><g transform="translate(301.839811, 197.917919)"><g><path d="M 0.953125 -9.78125 C 0.953125 -11.570312 1.414062 -12.929688 2.34375 -13.859375 C 3.269531 -14.785156 4.566406 -15.25 6.234375 -15.25 C 7.628906 -15.25 8.769531 -14.820312 9.65625 -13.96875 C 10.539062 -13.125 10.984375 -12.035156 10.984375 -10.703125 C 10.984375 -9.648438 10.726562 -8.765625 10.21875 -8.046875 C 9.707031 -7.335938 8.957031 -6.707031 7.96875 -6.15625 L 5.34375 -4.71875 C 3.789062 -3.875 2.914062 -2.898438 2.71875 -1.796875 L 10.984375 -1.796875 L 10.984375 0 L 0.5625 0 C 0.613281 -1.4375 0.921875 -2.628906 1.484375 -3.578125 C 2.054688 -4.535156 2.941406 -5.359375 4.140625 -6.046875 L 6.875 -7.640625 C 7.601562 -8.054688 8.128906 -8.488281 8.453125 -8.9375 C 8.785156 -9.382812 8.953125 -10 8.953125 -10.78125 C 8.953125 -11.550781 8.679688 -12.203125 8.140625 -12.734375 C 7.597656 -13.265625 6.863281 -13.53125 5.9375 -13.53125 C 4.914062 -13.53125 4.148438 -13.191406 3.640625 -12.515625 C 3.128906 -11.847656 2.867188 -10.9375 2.859375 -9.78125 Z M 0.953125 -9.78125 "/></g></g></g></svg>